<svg width="16" height="16" viewBox="0 0 16 16" fill="none" xmlns="http://www.w3.org/2000/svg">
<circle cx="8" cy="8" r="8" fill="#F8F8FF"/>
<path d="M7.17969 8.65625C7.17969 8.9974 7.11979 9.3112 7 9.59766C6.88281 9.88411 6.72005 10.1315 6.51172 10.3398C6.30339 10.5456 6.05599 10.707 5.76953 10.8242C5.48307 10.9414 5.17188 11 4.83594 11H2.09375C2.02083 11 1.95312 10.987 1.89062 10.9609C1.82812 10.9349 1.77344 10.8997 1.72656 10.8555C1.68229 10.8086 1.64714 10.7539 1.62109 10.6914C1.59505 10.6289 1.58203 10.5612 1.58203 10.4883V5.91016C1.58203 5.83984 1.59505 5.77344 1.62109 5.71094C1.64714 5.64844 1.68229 5.59375 1.72656 5.54688C1.77344 5.5 1.82812 5.46354 1.89062 5.4375C1.95312 5.41146 2.02083 5.39844 2.09375 5.39844H4.83594C5.17188 5.39844 5.48307 5.45703 5.76953 5.57422C6.05599 5.69141 6.30339 5.85417 6.51172 6.0625C6.72005 6.26823 6.88281 6.51562 7 6.80469C7.11979 7.09115 7.17969 7.40365 7.17969 7.74219V8.65625ZM6.16406 7.74219C6.16406 7.54427 6.13151 7.36328 6.06641 7.19922C6.00391 7.03516 5.91406 6.89583 5.79688 6.78125C5.67969 6.66406 5.53906 6.57422 5.375 6.51172C5.21354 6.44661 5.03385 6.41406 4.83594 6.41406H2.59766V9.98438H4.83594C5.03385 9.98438 5.21354 9.95312 5.375 9.89062C5.53906 9.82552 5.67969 9.73568 5.79688 9.62109C5.91406 9.50391 6.00391 9.36458 6.06641 9.20312C6.13151 9.03906 6.16406 8.85677 6.16406 8.65625V7.74219ZM9.19922 7.6875H12.7656V5.39844H13.7812V11H12.7656V8.71094H9.19922V11H8.18359V5.39844H9.19922V7.6875Z" fill="url(#paint0_linear_168_4)"/>
<defs>
<linearGradient id="paint0_linear_168_4" x1="1" y1="3" x2="15" y2="13" gradientUnits="userSpaceOnUse">
<stop stop-color="#00008B"/>
<stop offset="1" stop-color="#800080"/>
</linearGradient>
</defs>
</svg>